<?xml version="1.0" standalone="no"?>
<!DOCTYPE svg PUBLIC "-//W3C//DTD SVG 1.1//EN" "http://www.w3.org/Graphics/SVG/1.1/DTD/svg11.dtd" >
<!--
2013-9-30: Created.
-->
<svg>
<metadata>
Created by iconfont
</metadata>
<defs>

<font id="iconfont" horiz-adv-x="1024" >
  <font-face
    font-family="iconfont"
    font-weight="500"
    font-stretch="normal"
    units-per-em="1024"
    ascent="896"
    descent="-128"
  />
    <missing-glyph />
    
    <glyph glyph-name="x" unicode="x" horiz-adv-x="1001"
d="M281 543q-27 -1 -53 -1h-83q-18 0 -36.5 -6t-32.5 -18.5t-23 -32t-9 -45.5v-76h912v41q0 16 -0.5 30t-0.5 18q0 13 -5 29t-17 29.5t-31.5 22.5t-49.5 9h-133v-97h-438v97zM955 310v-52q0 -23 0.5 -52t0.5 -58t-10.5 -47.5t-26 -30t-33 -16t-31.5 -4.5q-14 -1 -29.5 -0.5
t-29.5 0.5h-32l-45 128h-439l-44 -128h-29h-34q-20 0 -45 1q-25 0 -41 9.5t-25.5 23t-13.5 29.5t-4 30v167h911zM163 247q-12 0 -21 -8.5t-9 -21.5t9 -21.5t21 -8.5q13 0 22 8.5t9 21.5t-9 21.5t-22 8.5zM316 123q-8 -26 -14 -48q-5 -19 -10.5 -37t-7.5 -25t-3 -15t1 -14.5
t9.5 -10.5t21.5 -4h37h67h81h80h64h36q23 0 34 12t2 38q-5 13 -9.5 30.5t-9.5 34.5q-5 19 -11 39h-368zM336 498v228q0 11 2.5 23t10 21.5t20.5 15.5t34 6h188q31 0 51.5 -14.5t20.5 -52.5v-227h-327z" />
    

    
    <glyph glyph-name="xin" unicode="&#58893;" d="M914.061 73.252c11.309 0 20.469 9.092 20.469 20.264l0 402.48c0 16.211-5.137 31.23-13.789 43.633-0.352 0.566-0.449 1.211-0.84 1.758-0.684 0.879-1.621 1.357-2.402 2.109-14.238 17.813-36.035 29.434-60.781 29.434L212.341 572.93c-42.988 0-77.813-34.434-77.813-76.934l0-466.143c0-42.51 34.824-76.914 77.813-76.914l644.375 0c42.988 0 77.813 34.404 77.813 76.914l0 64.111c-0.059 11.133-9.18 20.156-20.469 20.156-11.27 0-20.43-9.023-20.488-20.156l0-60.059c0-22.383-18.359-40.508-40.957-40.508L216.443-6.603c-22.598 0-40.977 18.125-40.977 40.508L175.466 491.934c0 2.227 0.313 4.336 0.664 6.465l357.989-288.75c0.02 0 0.059-0.029 0.098-0.049 3.184-2.354 6.816-3.359 10.488-3.76 1.055-0.176 2.09-0.117 3.164-0.146 1.055 0.029 2.09-0.039 3.145 0.146 3.691 0.4 7.324 1.406 10.508 3.76 0.02 0.02 0.059 0.049 0.078 0.049l331.68 285.234c0.078-0.977 0.313-1.943 0.313-2.949l0-398.428C893.592 82.344 902.752 73.252 914.061 73.252L914.061 73.252 914.061 73.252zM216.443 532.451l636.172 0c5.391 0 10.527-1.094 15.254-2.969l-320-276.514L204.783 530.566C208.494 531.68 212.361 532.451 216.443 532.451L216.443 532.451 216.443 532.451zM216.443 532.451"  horiz-adv-x="1024" />

    
    <glyph glyph-name="bi" unicode="&#58972;" d="M1001.78 545.634l-236.897 232.502c-26.064 25.657-68.545 25.657-94.675 0l-592.129-581.118c-22.206-56.635-62.094-299.228-75.459-390.754 10.039-9.877 15.563-22.102 28.127-27.644 88.222 13.148 346.659 81.579 378.967 93.021l592.065 581.046c26.13 25.718 26.13 67.366 0 92.945v0 0zM101.748-151.597l-23.668 23.238 20.349 119.522 115.019-112.915-111.7-29.845zM362.314-81.82l-74.397-20.037-175.924 172.676 13.497 79.725 473.648 464.875 47.405-46.475-449.98-441.638 47.338-46.468 449.98 441.63 47.338-46.47-355.232-348.691 47.404-46.468 355.239 348.614 47.34-46.475-473.649-464.796zM883.366 429.451l-236.823 232.434 71.005 69.776 236.825-232.502-71.007-69.708zM883.366 429.451z"  horiz-adv-x="1024" />

    
    <glyph glyph-name="bofang" unicode="&#58927;" d="M512-212C229.285566-212 0.106644 17.232243 0.106644 300 0.106644 582.767757 229.285566 812 512 812 794.714434 812 1023.893356 582.767757 1023.893356 300 1023.893356 17.232243 794.714434-212 512-212ZM512 779.996001C246.956551 779.996001 32.099979 565.086107 32.099979 300 32.099979 34.903228 246.956551-179.996001 512-179.996001 777.043449-179.996001 991.900021 34.903228 991.900021 300 991.900021 565.086107 777.043449 779.996001 512 779.996001ZM639.973339 97.322225 618.644449 97.322225C595.08669 97.322225 575.986669 116.422245 575.986669 139.980004L575.986669 459.913351C575.986669 483.47111 595.08669 502.571131 618.644449 502.571131L639.973339 502.571131C663.531098 502.571131 682.631119 483.47111 682.631119 459.913351L682.631119 139.980004C682.631119 116.422245 663.531098 97.322225 639.973339 97.322225ZM405.355551 97.322225 384.026661 97.322225C360.468902 97.322225 341.368881 116.422245 341.368881 139.980004L341.368881 459.913351C341.368881 483.47111 360.468902 502.571131 384.026661 502.571131L405.355551 502.571131C428.91331 502.571131 448.013331 483.47111 448.013331 459.913351L448.013331 139.980004C448.013331 116.422245 428.91331 97.322225 405.355551 97.322225Z"  horiz-adv-x="1024" />

    
    <glyph glyph-name="guanyu" unicode="&#58911;" d="M597.333333 726.688C361.706667 726.688 170.645333 535.626667 170.645333 300c0-235.626667 191.04-426.688 426.688-426.688S1024.021333 64.373333 1024.021333 300C1024.021333 535.626667 832.96 726.688 597.333333 726.688zM597.333333-84.021333c-211.733333 0-384.021333 172.288-384.021333 384.021333S385.6 684.021333 597.333333 684.021333 981.354667 511.733333 981.354667 300 809.066667-84.021333 597.333333-84.021333zM664.298667 569.184c-15.957333 11.690667-40.106667 4.608-53.952-15.829333-13.866667-20.416-12.138667-46.464 3.797333-58.197333 15.914667-11.690667 40.106667-4.608 53.952 15.829333C681.962667 531.424 680.256 557.472 664.298667 569.184zM617.6 95.008c0 0-54.570667-50.645333-41.002667 13.333333 0 0 4.309333 28.032 19.221333 86.656 11.925333 46.869333 31.381333 113.109333 55.104 201.301333 0 0 12.416 44.416-39.744 36.010667-22.570667-3.648-50.24-18.773333-73.045333-36.010667-29.845333-22.549333-52.928-48.832-60.245333-58.645333l17.941333-16.021333c0 0 101.141333 111.936 75.626667 18.666667-25.557333-93.248-66.666667-230.741333-65.365333-286.634667 1.258667-55.914667 70.506667-22.677333 70.506667-22.677333s18.602667 11.882667 39.722667 29.354667c27.925333 23.061333 60.245333 54.656 60.245333 54.656l-16.64 17.344L617.6 95.008z"  horiz-adv-x="1195" />

    
    <glyph glyph-name="saoyisao" unicode="&#59098;" d="M70.62069 807.741793C70.62069 817.452138 78.547862 825.37931 88.258207 825.37931l260.943448 0L349.201655 860.689655c-145.584552 0-260.943448 0-260.943448 0-29.236966 0-52.965517-23.728552-52.965517-52.965517 0 0 0-119.77269 0-269.223724l35.310345 0L70.603034 807.741793zM953.37931 807.741793l0-270.283034 35.310345 0c0 149.963034 0 270.283034 0 270.283034 0 29.236966-23.728552 52.965517-52.965517 52.965517 0 0-117.954207 0-265.851586 0l0-35.310345 265.851586 0C945.452138 825.37931 953.37931 817.452138 953.37931 807.741793zM70.62069-39.741793 70.62069 236.50869 35.310345 236.50869c0-152.717241 0-276.250483 0-276.250483 0-29.236966 23.728552-52.965517 52.965517-52.965517 0 0 116.082759 0 262.302897 0l0 35.310345L88.258207-57.396966C78.547862-57.37931 70.62069-49.452138 70.62069-39.741793zM953.37931-39.741793C953.37931-49.452138 945.452138-57.37931 935.741793-57.37931L670.878897-57.37931l0-35.310345c147.42069 0 264.862897 0 264.862897 0 29.236966 0 52.965517 23.728552 52.965517 52.965517 0 0 0 122.897655 0 275.120552l-35.310345 0L953.396966-39.741793zM1006.344828 401.655172 17.655172 401.655172c-9.745655 0-17.655172-7.909517-17.655172-17.655172 0-9.745655 7.909517-17.655172 17.655172-17.655172L1006.344828 366.344828c9.745655 0 17.655172 7.909517 17.655172 17.655172C1024.017655 393.745655 1016.108138 401.655172 1006.344828 401.655172z"  horiz-adv-x="1025" />

    
    <glyph glyph-name="shezhi" unicode="&#59010;" d="M504.613 593.115c-124.068 0-225.021-100.98-225.021-225.103s100.939-225.089 225.021-225.089 225.007 100.98 225.007 225.089-100.926 225.103-225.007 225.103zM504.613 182.027c-102.509 0-185.918 83.436-185.918 185.999s83.408 185.999 185.918 185.999c102.509 0 185.918-83.45 185.918-185.999s-83.394-185.999-185.918-185.999zM959.174 484.284c-22.214 2.020-67.898 14.896-77.974 36.864-7.387 16.057 2.853 45.574 28.071 80.964l22.432 31.511-151.307 159.389-33.451-25.054c-13.872-10.404-50.804-31.867-76.513-31.867-4.546 0-8.342 0.71-11.25 2.089-13.23 6.294-22.132 34.83-23.785 76.294l-1.761 45.11h-240.927l-1.775-45.097c-1.652-41.478-10.541-70.014-23.771-76.322-2.908-1.379-6.69-2.089-11.223-2.089-25.723 0-62.669 21.476-76.541 31.881l-33.478 25.094-151.279-159.43 22.432-31.511c25.204-35.348 35.444-64.839 28.112-80.91-9.585-21.012-52.278-34.461-78.029-36.932l-42.694-3.891v-218.986l42.612-3.877c25.833-2.471 68.526-15.92 78.111-36.932 7.332-16.070-2.908-45.562-28.112-80.924l-22.419-31.511 151.279-159.43 33.465 25.108c13.872 10.39 50.818 31.867 76.541 31.867 4.533 0 8.315-0.697 11.21-2.076 10.226-4.875 21.845-27.484 23.785-76.322l1.761-45.097h240.954l1.775 45.097c1.652 41.492 10.541 70.028 23.757 76.322 2.922 1.393 6.718 2.089 11.25 2.089 25.696 0 62.641-21.476 76.513-31.867l33.451-25.068 151.293 159.403-22.419 31.525c-25.231 35.39-35.458 64.894-28.085 80.964 10.076 21.954 55.76 34.844 77.988 36.864l42.694 3.891v218.986l-42.694 3.877zM962.779 297.083l-7.14-0.655c-0.86-0.082-86.562-8.437-109.978-59.488-13.967-30.419-3.277-70.779 31.772-119.945l3.755-5.284-105.185-110.811-5.598 4.192c-18.309 13.722-62.765 39.677-99.97 39.677-10.39 0-19.811-1.966-28.044-5.871-28.18-13.421-43.663-50.449-46.039-110.086l-0.287-7.537h-165.751l-0.287 7.55c-2.375 59.625-17.872 96.652-46.052 110.074-8.192 3.905-17.627 5.871-28.017 5.871-46.558 0-99.478-39.294-99.997-39.691l-5.612-4.205-105.158 110.837 3.755 5.27c34.993 49.098 45.698 89.415 31.826 119.822-23.17 50.763-106.428 59.283-110.046 59.625l-7.14 0.655 0.014 147.593 7.236 0.655c3.536 0.341 86.795 8.861 109.964 59.625 13.872 30.406 3.154 70.724-31.84 119.822l-3.755 5.284 105.158 110.825 5.612-4.205c0.532-0.396 53.453-39.691 99.997-39.691 10.404 0 19.825 1.98 28.030 5.885 28.166 13.408 43.663 50.449 46.039 110.074l0.287 7.537h165.765l0.287-7.55c2.375-59.625 17.872-96.652 46.066-110.074 8.206-3.891 17.627-5.871 28.030-5.871 37.219 0 81.661 25.969 99.956 39.677l5.598 4.192 105.185-110.811-3.755-5.27c-35.049-49.18-45.725-89.552-31.758-119.945 23.429-51.091 109.118-59.42 109.964-59.501l7.154-0.655-0.041-147.593z"  horiz-adv-x="1024" />

    
    <glyph glyph-name="icons64x6414" unicode="&#58958;" d="M624 176c0-4.096-1.568-8.192-4.688-11.312S612.096 160 608 160L384 160c-4.096 0-8.192 1.568-11.312 4.688S368 171.904 368 176l0 98c-85.36 48.048-140 141.344-140 240.432 0 147.44 127.312 272 278 272 150.288 0 268-119.488 268-272 0-105.36-55.856-194.032-150-239.232L624 176zM400 192l192 0 0 103.936 9.6 4.192c87.92 38.416 140.4 118.544 140.4 214.32 0 134.576-103.664 240-236 240-133.344 0-246-109.904-246-240 0-90.56 51.552-175.616 131.328-216.656L400 293.312 400 192zM608 128c0-8.832-7.92-16-17.68-16L401.68 112C391.92 112 384 119.168 384 128s7.92 16 17.68 16l188.624 0C600.08 144 608 136.832 608 128zM495.872 0c-15.856 0-38.304 25.632-47.2 35.68-35.504 39.952-33.36 45.856-30.624 51.92l3.168 7.648L429.312 96l141.008 0 3.52-7.28c2.224-4.928 5.264-13.904-30.608-54.32C525.104 13.968 507.872 0 495.952 0 495.936 0 495.904 0 495.872 0zM451.264 64c4.048 0 9.168-7.184 15.36-14.144 15.664-17.68 26.192-22 29.552-23.232 3.344 0.976 13.76 3.664 29.104 20.96C531.76 54.912 537.168 64 541.36 64L451.264 64zM681.968 574.176l-28.496 14.592-73.056-142.8-60.096 112.096-8.752-4.688c-2.256-1.216-4.832-1.904-7.568-1.904s-5.312 0.688-7.568 1.904l-8.736 4.688-60.112-112.128-73.072 142.832-28.496-14.592 87.472-170.928 5.008 2.56c2.224 1.136 4.752 1.776 7.44 1.744 2.672-0.032 5.184-0.72 7.408-1.888l6.96-3.728 63.696 118.816 63.712-118.816 6.944 3.712c2.224 1.184 4.736 1.872 7.408 1.904 2.688 0.032 5.216-0.608 7.456-1.76l4.992-2.544L681.968 574.176z"  horiz-adv-x="1024" />

    
    <glyph glyph-name="download-copy" unicode="&#58883;" d="M544.142 57.046v391.239h-64.286v-391.239l-89.773 89.775-45.454-45.452 167.369-167.369 167.369 167.369-45.454 45.452zM767.039 608.309c-15.538 127.129-123.705 225.691-255.039 225.691s-239.501-98.563-255.039-225.691c-108.828-7.22-194.961-97.559-194.961-208.238 0-115.388 93.54-208.928 208.928-208.928h112.5v64.286h-112.5c-79.761 0-144.642 64.882-144.642 144.642 0 75.773 59.264 139.087 134.944 144.078l53.079 3.547 6.465 52.828c11.803 96.461 93.981 169.191 191.227 169.191s179.423-72.729 191.225-169.189l6.465-52.828 53.078-3.547c75.682-4.992 134.946-68.305 134.946-144.079 0-79.761-64.882-144.642-144.642-144.642h-112.5v-64.286h112.5c115.388 0 208.928 93.54 208.928 208.928 0 110.679-86.133 201.018-194.961 208.238z"  horiz-adv-x="1024" />

    
    <glyph glyph-name="gouwuche" unicode="&#58991;" d="M826.756707 121.732761 374.791012 121.732761l14.497179-50.650587 375.250476 0c33.571606 0 60.883649-27.312042 60.883649-60.884672 0-33.571606-27.312042-60.883649-60.883649-60.883649-33.57263 0-60.884672 27.312042-60.884672 60.883649 0 18.662035 8.447393 35.380812 21.710464 46.558385L442.36913 56.755888c13.263072-11.177574 21.710464-27.89635 21.710464-46.558385 0-33.571606-27.312042-60.883649-60.883649-60.883649-33.571606 0-60.884672 27.312042-60.884672 60.883649 0 23.880897 13.82589 44.582381 33.887808 54.55143L169.818687 785.824715 66.166979 785.824715l0 14.326287 112.804159 0 1.523703 0.435928 62.066591-216.854956 714.081485 0L826.756707 121.732761zM718.228945 5.395126c2.648316-25.53456 25.576515-44.154639 51.112098-41.506323 25.53456 2.648316 44.154639 25.576515 41.506323 51.111075-2.648316 25.535583-25.576515 44.155662-51.112098 41.507346C734.200708 53.858908 715.580628 30.930709 718.228945 5.395126zM357.530906 5.395126c2.648316-25.53456 25.576515-44.154639 51.112098-41.506323 25.53456 2.648316 44.154639 25.576515 41.506323 51.111075-2.648316 25.535583-25.576515 44.155662-51.112098 41.507346C373.502669 53.858908 354.88259 30.930709 357.530906 5.395126zM247.063979 569.405687 370.871749 136.059048l445.029726 0 121.832789 433.347662L247.063979 569.40671z"  horiz-adv-x="1024" />

    
    <glyph glyph-name="fenxiang" unicode="&#58924;" d="M851.2512-38.6048 176.9472-38.6048c-94.8224 0-105.3696 81.2032-105.3696 81.2032L71.5776 695.3984c0 86.016 89.9072 93.7984 89.9072 93.7984l282.7264 0-0.3072-37.6832L169.1648 751.5136c-50.2784 0-58.9824-42.5984-58.9824-42.5984L110.1824 53.248c0-49.2544 60.928-56.1152 60.928-56.1152l670.208 0c24.1664 0 23.2448 34.816 23.2448 34.816L864.5632 338.7392l35.1232 0 0-291.2256C899.6864-31.8464 851.2512-38.6048 851.2512-38.6048L851.2512-38.6048zM763.904 416.8704l-28.0576 28.0576 144.0768 146.0224L733.9008 590.9504C568.6272 571.5968 486.4 497.152 486.4 497.152 352.9728 400.384 352.9728 147.0464 352.9728 147.0464L313.344 147.0464c-2.8672 190.5664 75.4688 300.7488 75.4688 300.7488 113.152 176.0256 352.0512 181.76 352.0512 181.76l133.4272 0-139.264 150.9376 28.0576 26.112 189.5424-201.216L763.904 416.8704 763.904 416.8704z"  horiz-adv-x="1024" />

    
    <glyph glyph-name="previous" unicode="&#58957;" d="M512-98.423c-266.014 0-482.423 216.435-482.423 482.423 0 266.014 216.41 482.423 482.423 482.423 265.987 0 482.423-216.41 482.423-482.423 0-265.987-216.435-482.423-482.423-482.423zM512 798.72c-228.665 0-414.72-186.031-414.72-414.72s186.031-414.773 414.72-414.773 414.748 186.11 414.748 414.773-186.058 414.72-414.748 414.72zM695.805 183.301v371.684l-294.811-192.225 294.811-179.46zM401.021 183.301v346.026h-51.265v-346.026h51.265z"  horiz-adv-x="1024" />

    
    <glyph glyph-name="weixin" unicode="&#58885;" d="M270.496 551.497c0-20.819 16.877-37.697 37.697-37.697s37.697 16.877 37.697 37.697c0 0 0 0 0 0 0 20.819-16.877 37.697-37.697 37.697-20.819 0-37.697-16.877-37.697-37.697 0-0 0-0 0-0zM564.093 356.558c0-16.298 13.212-29.51 29.51-29.51s29.51 13.212 29.51 29.51c0 16.298-13.212 29.51-29.51 29.51-16.298 0-29.51-13.212-29.51-29.51zM462.786 551.497c0-20.819 16.877-37.697 37.697-37.697s37.697 16.877 37.697 37.697c0 0 0 0 0 0 0 20.819-16.877 37.697-37.697 37.697-20.819 0-37.697-16.877-37.697-37.697 0-0 0-0 0-0zM813.979 834.391h-604.984c-80.099 0-145.035-65.148-145.035-145.512l0-604.231c0-80.364 64.936-145.512 145.035-145.512h604.984c80.1 0 145.035 65.148 145.035 145.512v604.23c0.001 80.365-64.934 145.513-145.035 145.513zM399.842 234.599c-33.871 0-61.109 6.919-95.052 13.624l-94.859-47.563 27.138 81.628c-67.935 47.481-108.585 108.656-108.585 183.207 0 129.113 122.189 230.775 271.358 230.775 133.428 0 250.314-81.236 273.796-190.57-8.634 0.965-17.335 1.594-26.129 1.594-128.901 0-230.705-96.199-230.705-214.751 0-19.731 3.071-38.733 8.374-56.861-8.374-0.659-16.819-1.083-25.335-1.083zM800.124 139.546l20.411-67.816-74.436 40.771c-27.139-6.803-54.399-13.626-81.422-13.626-129.108 0-230.798 88.248-230.798 196.924 0 108.495 101.689 196.929 230.798 196.929 121.937 0 230.497-88.434 230.497-196.929 0-61.2-40.581-115.39-95.049-156.253zM711.961 356.558c0-16.298 13.212-29.51 29.51-29.51s29.51 13.212 29.51 29.51c0 16.298-13.212 29.51-29.51 29.51-16.298 0-29.51-13.212-29.51-29.51z"  horiz-adv-x="1024" />

    
    <glyph glyph-name="naozhong" unicode="&#58934;" d="M173.01703 774.291031c37.267788 33.649378 98.602715 22.059412 99.160417 21.950941l8.242731 41.777499c-3.325745 0.673335-82.031295 15.959483-135.106094-31.68463-34.07712-30.590715-48.906873-78.627778-44.075845-142.775774l41.908482 3.242857C139.379932 716.829318 149.428799 752.995005 173.01703 774.291031zM879.977327 803.96691c-53.072753 47.644113-131.781372 32.357965-135.104047 31.68463l8.184403-41.788755c0.615007 0.121773 61.948911 11.710716 99.218746-21.937638 23.588231-21.297049 33.636075-57.461713 29.869285-107.49013l41.908482-3.242857C928.885224 725.339132 914.056494 773.376195 879.977327 803.96691zM529.874601 660.91996L487.842299 660.91996 487.842299 445.530378 486.91109 445.530378 486.91109 402.925025 487.842299 402.925025 487.842299 402.463514 529.874601 402.463514 529.874601 402.925025 719.003076 402.925025 719.003076 445.530378 529.874601 445.530378ZM763.656065 684.880675c-32.995485 33.446763-71.423703 59.706847-114.216321 78.054727-44.315298 18.999726-91.378174 28.634154-139.880841 28.634154-48.501644 0-95.564519-9.634428-139.879817-28.634154-42.792619-18.34788-81.22186-44.607964-114.217345-78.054727-32.994462-33.44574-58.901505-72.39789-77.001745-115.77584-18.7439-44.920072-28.248368-92.625584-28.248368-141.791353 0-49.164746 9.504468-96.870258 28.248368-141.79033 18.10024-43.378973 44.007283-82.331123 77.001745-115.77584 28.378327-28.765137 60.785411-52.200896 96.521311-69.873394l-151.692864-138.872884 28.170596-31.618115 166.626995 152.543232c36.744879-12.528338 75.134211-18.86772 114.470101-18.86772 39.578414 0 78.199013 6.417153 115.148553 19.10308l166.881798-152.779615 28.172643 31.618115L667.738505 100.177839c35.496445 17.636682 67.699891 40.966017 95.91756 69.569472 32.994462 33.444716 58.902528 72.396867 77.002768 115.77584 18.741853 44.920072 28.247344 92.625584 28.247344 141.79033 0 49.16577-9.504468 96.871281-28.247344 141.791353C822.558593 612.482785 796.650527 651.434935 763.656065 684.880675zM633.718691 131.319094l-3.181459 2.915399-5.964852-6.696516c-35.676547-14.113439-74.467015-21.874193-115.013477-21.874193-40.009226 0-78.30339 7.565303-113.589035 21.324678l-6.456039 7.246031-3.486404-3.193739c-113.778346 48.929386-193.785541 163.308413-193.785541 296.272727 0 177.358407 142.347009 321.650721 317.315996 321.650721 174.968987 0 317.317019-144.292314 317.317019-321.650721C826.874899 294.594761 747.160369 180.399929 633.718691 131.319094z"  horiz-adv-x="1024" />

    
    <glyph glyph-name="huiyuan" unicode="&#59027;" d="M512.36225-24.550906c-11.813047 0-23.299659 4.169973-40.958854 24.522509l-160.270216 184.354752C211.523531 298.849668 125.498272 397.754259 85.317131 444.519352l-0.919952 1.070378-0.76441 1.188059c-22.804379 35.421744-22.598694 71.154573 0.559748 98.065479 20.638039 24.551162 63.714114 74.294077 105.37291 122.399701 35.671431 41.180911 66.874083 77.231989 87.473237 101.370759 17.699104 20.714787 30.496571 23.568788 41.690518 23.568788 1.574868 0.00307 163.375951 0.369414 276.846282 0.369414 64.304562 0 103.373369-0.125867 110.009509-0.353041 18.575054-0.729617 27.060309-9.003048 41.673122-24.793686C783.249821 728.606549 864.349907 633.779833 907.919215 582.834534c15.487739-18.10024 27.702945-32.367175 32.317033-37.644365l0.342807-0.402159c24.512277-29.535687 19.941168-74.771961 0.294713-98.490152l-0.235361-0.278339C894.990764 392.873088 808.874431 293.875376 717.701942 189.066309L553.323151-0.042723c-17.724687-20.407796-28.814256-24.508183-40.960901-24.508183z m-395.035078 494.625284c40.502459-47.120181 125.914758-145.32176 224.690412-258.885212l160.290683-184.377264c5.201465-5.994528 8.439206-8.763594 10.087752-9.977236 1.639337 1.224898 4.846378 4.002151 10.030448 9.970072l164.389024 189.120289C777.85495 320.581622 863.84644 419.43607 909.447011 472.525196c7.483438 9.18622 11.162224 32.007995-0.222058 45.950541-4.886287 5.596462-17.051351 19.804045-32.408107 37.752836-43.385113 50.728358-124.136252 145.146774-159.583578 183.359075-2.329045 2.51631-9.182127 9.921977-11.750625 11.615548a20.408819 20.408819 0 0 1-1.400906 0.093121c-2.14792 0.073678-16.628726 0.325411-108.504227 0.325411-113.424282 0-275.178293-0.36532-276.79921-0.369413-0.251733 0-0.536212 0-0.759293-0.00307-0.852414-0.448208-4.041036-2.415003-9.849322-9.213849-20.682042-24.235984-51.936883-60.347436-87.660502-101.588723-41.617863-48.058552-84.655052-97.756441-105.064894-122.039497l-0.177032-0.207731c-10.790764-12.494569-10.093892-28.681226 2.059915-48.125067zM689.083138 517.282562l-177.286776-227.051179-177.057555 227.668233c-1.809205 2.845815-2.355651 2.845815-4.920056 2.845815h-86.383416v-39.919175h2.073218c16.330944 0 22.384823-4.247744 29.085432-13.189394 0.656963-0.89744 1.430582-1.920746 2.971681-3.827165 38.936801-52.939723 191.544501-238.401692 234.617506-296.163233 43.057655 57.802474 195.568141 243.392356 235.023758 296.893874 0.954745 1.1328 1.698688 2.142803 2.355651 3.025916 6.742565 8.983605 12.811794 13.260002 29.070082 13.260002h1.961678V520.811946H694.52201c-2.426259 0.001023-3.15383 0.001023-5.438872-3.529384z"  horiz-adv-x="1024" />

    
    <glyph glyph-name="github" unicode="&#59070;" d="M511.966 896C229.239 896 0 666.761 0 383.966 0 157.764 146.705-34.133 350.174-101.82c25.6-4.71 34.918 11.094 34.918 24.679 0 12.151-0.409 44.339-0.682 87.074-142.405-30.959-172.476 68.642-172.476 68.642-23.279 59.119-56.832 74.888-56.832 74.888-46.49 31.744 3.516 31.13 3.516 31.13 51.37-3.618 78.438-52.77 78.438-52.77 45.67-78.268 119.808-55.672 148.992-42.564 4.642 33.109 17.886 55.671 32.495 68.471-113.698 12.903-233.199 56.832-233.199 253.031 0 55.91 19.934 101.614 52.702 137.386-5.291 12.971-22.835 65.024 5.017 135.51 0 0 42.974 13.755 140.8-52.498a490.07 490.07 0 0 0 128.171 17.238 490.836 490.836 0 0 0 128.171-17.238c97.758 66.253 140.663 52.498 140.663 52.498 27.921-70.486 10.343-122.539 5.086-135.51 32.836-35.772 52.634-81.476 52.634-137.386 0-196.677-119.706-239.958-233.779-252.655 18.397-15.804 34.781-47.036 34.781-94.789 0-68.471-0.648-123.699-0.648-140.458 0-13.688 9.25-29.628 35.225-24.645C877.431-33.929 1024 157.833 1024 383.966 1024 666.761 794.726 896 511.966 896"  horiz-adv-x="1024" />

    
    <glyph glyph-name="xunhuan" unicode="&#58910;" d="M763.216149 193.720396l-108.161088 69.378635c-12.279404 7.879285-22.307585 2.046567-22.307584-12.893375v-46.45708h-254.797642c-96.08634 0-174.162886 80.839412-174.162886 180.302588 0 34.791646 9.618867 68.662336 27.833317 97.723594 7.572299 12.177076 4.195463 28.447287-7.5723 36.326571-11.767763 7.879285-27.424003 4.40012-35.098631-7.776956-23.535525-37.65684-35.917258-81.248726-35.917257-126.273209 0-62.215649 23.433197-120.645148 65.89947-164.544019 42.466274-44.001199 98.951534-68.150695 159.018287-68.150695h254.89997v-46.764065c0-14.939942 9.925852-20.465674 22.0006-12.381732l108.672729 72.653142c12.074748 7.981613 11.972419 20.977316-0.306985 28.856601z m41.954631 354.874787c-42.466274 44.001199-98.951534 68.150695-159.018287 68.150695H410.080943v46.764065c0 14.939942-9.925852 20.465674-22.000599 12.381733l-108.672729-72.653143c-12.074748-8.083941-11.972419-21.181973 0.306985-29.061257L387.875687 504.798641c12.279404-7.879285 22.307585-2.046567 22.307585 12.893375v46.45708h236.07155c96.08634 0 174.162886-80.839412 174.162886-180.302589 0-16.474868-2.148896-32.745078-6.344359-48.401319-3.78615-13.916658 4.195463-28.447287 17.600479-32.335765 2.251224-0.61397 4.604777-0.920955 6.753673-0.920955 11.153792 0 21.284301 7.572299 24.45648 19.237734 5.423404 20.261017 8.18627 41.238333 8.18627 62.420305-0.102328 62.317977-23.433197 120.747477-65.899471 164.748676z"  horiz-adv-x="1024" />

    
    <glyph glyph-name="bofang3" unicode="&#58880;" d="M757.684 390c-0.017 0.018-0.032 0.038-0.049 0.055-0.901 0.91-1.89 1.672-2.929 2.319l-335.065 266.984c-2.955 3.592-7.422 5.898-12.414 5.925-8.836 0.047-16.214-6.833-16.166-15.67l0.134-534.060c0.047-8.837 7.504-16.041 16.34-16.089 5.331-0.028 10.028 2.564 12.917 6.558l333.461 258.394c1.467 0.742 2.846 1.718 4.070 2.953 6.115 6.186 6.115 16.208 0 22.393l-0.299 0.238zM423.45 148.551l-0.118 467.817 297.709-237.218-297.592-230.599zM512.523 891.922c-281.035 0-508.867-227.824-508.867-508.867 0-281.044 227.832-508.868 508.867-508.868 281.045 0 508.876 227.824 508.876 508.868 0 281.044-227.832 508.867-508.876 508.867zM512.555-94.606c-263.195 0-476.564 213.361-476.564 476.565 0 263.196 213.369 476.565 476.564 476.565s476.565-213.37 476.565-476.565c0-263.204-213.37-476.565-476.565-476.565z"  horiz-adv-x="1024" />

    
    <glyph glyph-name="pifu" unicode="&#59038;" d="M732.8 752c13.6 0 27.2-6.4 39.2-18.4l188.8-188.8c20.8-20.8 20.8-54.4 0-75.2l-64.8-64.8c-9.6-9.6-23.2-15.2-37.6-15.2-11.2 0-16.8 3.2-28.8 14.4l-48 64c-3.2 4-8 6.4-12.8 6.4-1.6 0-3.2 0-4.8-0.8-6.4-2.4-11.2-8-11.2-15.2v-318.4c0-68-55.2-123.2-123.2-123.2h-235.2c-68 0-123.2 55.2-123.2 123.2v319.2c0 7.2-4 12.8-11.2 15.2-1.6 0.8-3.2 0.8-4.8 0.8-4.8 0-9.6-2.4-12.8-6.4l-48-64c-12-12-17.6-14.4-28.8-14.4-14.4 0-28 5.6-37.6 15.2l-64.8 64.8c-9.389 9.31-15.201 22.213-15.201 36.474 0 0.114 0 0.229 0.001 0.343-0 14.382 5.6 27.182 16 37.582l190.4 188c9.6 9.6 22.4 14.4 36.8 14.4 15.2 0 28-4.8 37.6-14.4 4-4 10.4-14.4 16.8-24.8 25.6-42.4 68.8-113.6 161.6-113.6 3.2 0 5.6 0 8 0.8h7.2c103.2 8.8 136.8 69.6 160 110.4 6.4 12 12 21.6 17.6 28.8 8.8 11.2 20.8 17.6 32.8 17.6M732.8 768c-16 0-32-7.2-46.4-23.2-30.4-35.2-44-123.2-167.2-133.6-4.8 0-8.8-0.8-13.6-0.8-108-0-142.4 109.6-166.4 133.6-12.8 12.8-30.4 19.2-48.8 19.2-17.6 0-35.2-6.4-48-19.2l-190.4-188c-27.2-27.2-27.2-70.4 0-96.8l64.8-64.8c13.6-13.6 31.2-20 48.8-20s27.2 6.4 40.8 20l48.8 64.8v-319.2c0-76.8 62.4-139.2 139.2-139.2h235.2c76.8 0 139.2 62.4 139.2 139.2v318.4l48.8-64.8c13.6-13.6 23.2-20 40.8-20 17.6 0 35.2 6.4 48.8 20l64.8 64.8c26.4 27.2 26.4 70.4 0 97.6l-188.8 188.8c-14.4 14.4-32 23.2-50.4 23.2z"  horiz-adv-x="1024" />

    
    <glyph glyph-name="qq" unicode="&#58886;" d="M512 831.367c-246.678 0-446.651-199.972-446.651-446.651s199.972-446.651 446.651-446.651 446.651 199.972 446.651 446.651-199.972 446.651-446.651 446.651zM731.018 252.313c-9.99-5.209-25.589 6.65-40.227 28.418-5.769-23.719-20.169-45.17-40.628-62.422 21.505-7.937 35.526-20.916 35.526-35.581 0-24.119-37.982-43.671-84.863-43.671-42.255 0-77.304 15.891-83.79 36.725-1.685 0.027-8.362 0.027-10.1 0-6.46-20.861-41.48-36.725-83.764-36.725-46.882 0-84.864 19.523-84.864 43.671 0 14.692 14.038 27.645 35.524 35.581-20.488 17.226-34.83 38.702-40.625 62.422-14.639-21.768-30.28-33.628-40.255-28.418-14.465 7.558-11.539 48.025 6.48 90.444 14.129 33.31 33.402 57.883 47.986 63.306-0.186 2.136-0.268 4.273-0.268 6.408 0 12.904 3.582 24.79 9.646 34.488-0.029 0.746-0.082 1.52-0.082 2.27 0 5.903 1.404 11.457 3.831 16.293 3.677 86.655 60.116 155.462 151.454 155.462 91.287 0 147.701-68.807 151.411-155.462 2.406-4.81 3.824-10.363 3.824-16.296 0-0.746 0-1.52-0.105-2.267 6.116-9.698 9.696-21.613 9.696-34.488 0-2.135-0.108-4.299-0.321-6.411 14.692-5.419 33.896-29.971 48.054-63.303 18.080-42.393 20.936-82.886 6.46-90.444z"  horiz-adv-x="1024" />

    
    <glyph glyph-name="shang" unicode="&#58881;" d="M512 866.424c266.014 0 482.423-216.435 482.423-482.423 0-266.014-216.41-482.424-482.423-482.423-265.987 0-482.424 216.41-482.423 482.423 0 265.987 216.435 482.423 482.423 482.423zM512-30.72c228.666 0 414.72 186.031 414.72 414.72s-186.031 414.773-414.72 414.773-414.748-186.111-414.748-414.773 186.058-414.72 414.748-414.72zM328.195 584.699v-371.684l294.81 192.225-294.81 179.46zM622.979 584.7v-346.026h51.265v346.026h-51.265z"  horiz-adv-x="1024" />

    
    <glyph glyph-name="xinlangweibo" unicode="&#58887;" d="M823.038-63.144h-622.075c-75.179 0-136.185 60.851-136.185 136.184l0 621.92c0 75.333 61.005 136.185 136.185 136.185h622.075c75.177 0 136.184-60.852 136.184-136.185v-621.92c0-75.333-61.006-136.184-136.184-136.184v0zM512.924 534.281c0 36.512-12.632 98.287-120.008 61.776-107.222-36.665-199.502-165.301-199.502-165.301-63.933-85.655-55.459-151.745-55.459-151.745 15.867-145.889 171.001-185.944 291.471-195.342 126.942-10.013 298.096 43.752 350.014 153.901 51.916 110.457-42.365 154.208-72.405 160.216-29.888 5.854-15.406 21.876-15.406 21.876s29.271 48.219-5.854 83.343c-43.291 43.443-148.971-5.545-148.971-5.545-40.363-12.477-29.58 5.702-23.88 36.821v0zM747.858 469.886c0-11.554 9.398-20.643 20.952-20.643 10.168 0 18.793 7.549 20.181 17.408 0.153 0.616 0.308 1.233 0.308 2.157 15.559 139.111-114 115.079-114 115.079-11.401 0-20.644-9.244-20.644-20.952 0-11.246 9.244-20.643 20.644-20.643 93.048 20.489 72.56-72.406 72.56-72.406v0zM753.558 691.879c-44.676 10.476-90.739 1.54-103.526-0.924-1.078-0.153-2.003-1.079-2.926-1.232-0.464-0.155-0.772-0.617-0.772-0.617-12.632-3.543-22.029-15.251-22.029-29.271 0-16.483 13.557-30.195 30.347-30.195 0 0 16.177 2.157 27.269 6.47 10.937 4.468 103.677 3.389 149.587-73.946 25.264-56.384 11.093-94.281 9.398-100.29 0 0-6.008-14.635-6.008-29.116 0-16.638 13.403-27.114 30.039-27.114 14.018 0 25.572 2.003 28.963 25.419h0.308c49.452 164.839-60.543 242.175-140.651 260.815v0zM666.826 293.338c0-83.96-101.985-162.836-228.002-168.535-125.863-6.008-227.693 57.308-227.693 141.268 0 84.114 101.83 151.591 227.693 157.444 126.017 5.854 228.002-46.063 228.002-130.177v0zM413.713 368.056c-126.633-14.79-111.999-133.411-111.999-133.411s-1.232-37.589 33.892-56.692c74.101-40.209 150.512-15.868 189.025 33.892 38.669 49.759 16.024 170.847-110.918 156.212v0zM434.356 267.149c-4.468 6.932-2.773 18.333 5.392 24.187 9.398 6.932 19.103 4.929 23.262-2.003 4.314-7.24 1.232-18.023-6.625-24.187-8.009-6.008-17.715-5.237-22.029 2.003v0zM381.823 201.522c-23.724-2.773-42.673 10.784-42.673 30.657 0 19.719 16.791 40.362 40.517 42.827 27.114 2.62 44.83-13.094 44.83-32.813 0-19.72-19.102-38.053-42.674-40.671v0zM381.823 201.522z"  horiz-adv-x="1024" />

    
    <glyph glyph-name="zaixiantingge" unicode="&#58882;" d="M834.706286-39.058286h-696.32c-9.654857 0-17.554286 7.899429-17.554286 17.554286v550.034286c0 9.654857 7.899429 17.554286 17.554286 17.554285h696.32c9.654857 0 17.554286-7.899429 17.554285-17.554285v-550.034286c0-9.654857-7.899429-17.554286-17.554285-17.554286zM805.888-11.702857H167.204571c-9.654857 0-17.554286 7.899429-17.554285 17.554286V501.174857c0 9.654857 7.899429 17.554286 17.554285 17.554286h638.683429c9.654857 0 17.554286-7.899429 17.554286-17.554286v-495.323428c0-9.654857-7.899429-17.554286-17.554286-17.554286zM842.752 544.036571H129.755429l89.088 148.041143h534.820571zM812.909714 537.453714H159.451429l81.773714 135.606857h490.057143zM237.275429 250.148571h21.942857v-175.542857h-21.942857zM314.368 250.148571h21.942857v-175.542857h-21.942857zM396.141714 250.148571h21.942857v-175.542857h-21.942857zM121.856 534.528l36.278857 56.612571M851.090286 534.528l-60.416 95.963429"  horiz-adv-x="1024" />

    
    <glyph glyph-name="che" unicode="&#58960;" d="M863.8 152.3H161.3c-8.2 0-15 6.8-15 15V351.9c0 29.5 24.2 53.6 53.6 53.6h625.7c29.5 0 53.6-24.2 53.6-53.6v-184.6c-0.4-8.3-7.2-15-15.4-15z m-575 470.1c0 0.5 0.5 0.5 0.5 1 1.4 4.8 17.9 47.8 70.5 47.8h305.8c52.7 0 68.6-43 70.5-47.8 0-0.5 0.5-1 0.5-1L801 453.8H224.1l64.7 168.6z m565.3-172.5l-72.5 189.4c-9.7 28-45.4 80.7-116 80.7H359.4c-70.5 0-106.8-52.2-116-80.7L171 449.9c-42-12.6-73-51.7-73-97.6v-184.6c0-34.8 28.5-63.3 63.3-63.3H184v-22.7c0-19.8 16.4-36.2 36.2-36.2s36.2 16.4 36.2 36.2v22.7h512.1v-22.7c0-19.8 16.4-36.2 36.2-36.2 19.8 0 36.2 16.4 36.2 36.2v22.7h22.7c34.8 0 63.3 28.5 63.3 63.3V352.4c0.2 45.9-30.8 85-72.8 97.5zM694.2 303.6c0-15.7 8.4-30.2 22-38.1 13.6-7.9 30.4-7.9 44 0 13.6 7.9 22 22.4 22 38.1 0 15.7-8.4 30.2-22 38.1-13.6 7.9-30.4 7.9-44 0-13.6-7.9-22-22.4-22-38.1zM286.9 303.6m-44 0a44 44 0 1 1 88 0 44 44 0 1 1-88 0Z"  horiz-adv-x="1024" />

    
    <glyph glyph-name="bofangye_gengduo_dingshiguanbi" unicode="&#58884;" d="M679.6 318c9.4 0 17.1-7.6 17.1-17.1s-7.6-17.1-17.1-17.1H576c-50.9 0-92.2 41.3-92.2 92.2V513.6c0 9.4 7.6 17.1 17.1 17.1 9.4 0 17.1-7.6 17.1-17.1V376c0-32 26-58 58-58h103.6z m-47.3 413c8.8-3.4 13.1-13.3 9.7-22.1-3.4-8.8-13.3-13.1-22.1-9.7-64.8 25.3-144.4 23.7-222.3-4.8-8.9-3.2-18.7 1.3-21.9 10.2-3.2 8.9 1.3 18.7 10.2 21.9 85.4 31.2 173.5 32.9 246.4 4.5zM735 518.7c-103.2 120.8-287 136.6-410.1 35.2C202.1 452.8 186.1 273.4 289 153c103.2-120.8 287-136.6 410.1-35.2C821.9 219 837.9 398.3 735 518.7z m-8.5 56.8l43.4 44.2c6.6 6.7 17.4 6.8 24.1 0.2s6.8-17.4 0.2-24.1L751 551.9c3.3-3.5 6.6-7.2 9.8-10.9 115.3-135 97.4-336.2-40-449.4C583.3-21.6 378.4-4 263 130.9s-97.4 336.2 40 449.4C427.8 683 608 678 726.5 575.5z"  horiz-adv-x="1024" />

    
    <glyph glyph-name="qq-copy-copy-copy-copy" unicode="&#59102;" d="M512 831.366957c-246.678192 0-446.650643-199.972451-446.650643-446.650643s199.972451-446.650643 446.650643-446.650643 446.650643 199.972451 446.650643 446.650643S758.678192 831.366957 512 831.366957zM731.018226 252.312772c-9.989515-5.208629-25.588795 6.650467-40.22719 28.418236-5.7694-23.719214-20.169365-45.169759-40.628326-62.421678 21.50478-7.936763 35.526121-20.916379 35.526121-35.58138 0-24.119327-37.982056-43.670615-84.862783-43.670615-42.255383 0-77.30362 15.890922-83.790358 36.725436-1.685385 0.026606-8.362458 0.026606-10.100032 0-6.460132-20.86112-41.479717-36.725436-83.763752-36.725436-46.88175 0-84.863806 19.522636-84.863806 43.670615 0 14.691607 14.037714 27.644617 35.524075 35.58138-20.487613 17.226337-34.830273 38.702464-40.625256 62.421678-14.639418-21.767769-30.27963-33.627888-40.254819-28.418236-14.465456 7.55814-11.538801 48.024783 6.479575 90.443895 14.128789 33.30964 33.401738 57.883315 47.985898 63.305815-0.186242 2.13564-0.268106 4.273327-0.268106 6.407943 0 12.903891 3.581572 24.789593 9.645684 34.488489-0.028653 0.74599-0.081864 1.51961-0.081864 2.269693 0 5.903453 1.403976 11.456936 3.831258 16.293081 3.676739 86.654592 60.116169 155.461701 151.454434 155.461701 91.287099 0 147.700947-68.807109 151.411455-155.461701 2.405793-4.809539 3.824095-10.363022 3.824095-16.296151 0-0.74599 0-1.51961-0.105401-2.266623 6.116301-9.697873 9.695826-21.61325 9.695826-34.488489 0-2.134617-0.10847-4.298909-0.321318-6.411013 14.691607-5.41943 33.895995-29.970592 48.054459-63.302745C742.637868 300.36416099999997 745.493915 259.870912 731.018226 252.312772z"  horiz-adv-x="1024" />

    
    <glyph glyph-name="github-copy" unicode="&#59103;" d="M511.966 896C229.239 896 0 666.761 0 383.966 0 157.764 146.705-34.13300000000004 350.174-101.82000000000005c25.6-4.71 34.918 11.094 34.918 24.679 0 12.151-0.409 44.339-0.682 87.074-142.405-30.959-172.476 68.642-172.476 68.642-23.279 59.119-56.832 74.888-56.832 74.888-46.49 31.744 3.516 31.13 3.516 31.13 51.37-3.618 78.438-52.77 78.438-52.77 45.67-78.268 119.808-55.672 148.992-42.564 4.642 33.109 17.886 55.671 32.495 68.471-113.698 12.903-233.199 56.832-233.199 253.031 0 55.91 19.934 101.614 52.702 137.386-5.291 12.971-22.835 65.024 5.017 135.51 0 0 42.974 13.755 140.8-52.498a490.07 490.07 0 0 0 128.171 17.238 490.836 490.836 0 0 0 128.171-17.238c97.758 66.253 140.663 52.498 140.663 52.498 27.921-70.486 10.343-122.539 5.086-135.51 32.836-35.772 52.634-81.476 52.634-137.386 0-196.677-119.706-239.958-233.779-252.655 18.397-15.804 34.781-47.036 34.781-94.789 0-68.471-0.648-123.699-0.648-140.458 0-13.688 9.25-29.628 35.225-24.645C877.431-33.928999999999974 1024 157.83299999999997 1024 383.966 1024 666.761 794.726 896 511.966 896"  horiz-adv-x="1024" />

    


  </font>
</defs>
</svg>
